<svg viewBox="0 0 210 70" xmlns="http://www.w3.org/2000/svg" xml:space="preserve" style="fill-rule:evenodd;clip-rule:evenodd;stroke-linejoin:round;stroke-miterlimit:2"><path d="M-558.9-1237.6v73l-72.9-36.5 72.9-36.5Z" style="fill:#ed1d7f;fill-rule:nonzero" transform="matrix(.14024 0 0 .14024 98.868 184.973)"/><path d="M-558.9-1164.6v72.9l-72.9-36.5 72.9-36.4Z" style="fill:#cc1e7c;fill-rule:nonzero" transform="matrix(.14024 0 0 .14024 98.868 184.973)"/><path d="m-558.9-1091.7-72.9 36.4v-72.9l72.9 36.5Z" style="fill:#ed1d7f;fill-rule:nonzero" transform="matrix(.14024 0 0 .14024 98.868 184.973)"/><path d="M-558.9-1091.7v72.9l-72.9-36.5 72.9-36.4ZM-558.9-1018.8v72.9l-72.9-36.5 72.9-36.4Z" style="fill:#cc1e7c;fill-rule:nonzero" transform="matrix(.14024 0 0 .14024 98.868 184.973)"/><path d="m-558.9-945.9-72.9 36.5v-73l72.9 36.5Z" style="fill:#ed1d7f;fill-rule:nonzero" transform="matrix(.14024 0 0 .14024 98.868 184.973)"/><path d="M-558.9-945.9v72.9l-72.9-36.4 72.9-36.5ZM-486-1201.1l-72.9 36.5v-73l72.9 36.5Z" style="fill:#cc1e7c;fill-rule:nonzero" transform="matrix(.14024 0 0 .14024 98.868 184.973)"/><path d="M-486-1201.1v72.9l-72.9-36.4 72.9-36.5ZM-486-1055.3l-72.9 36.5v-72.9l72.9 36.4Z" style="fill:#aa1f7a;fill-rule:nonzero" transform="matrix(.14024 0 0 .14024 98.868 184.973)"/><path d="M-486-1055.3v72.9l-72.9-36.4 72.9-36.5Z" style="fill:#892077;fill-rule:nonzero" transform="matrix(.14024 0 0 .14024 98.868 184.973)"/><path d="M-486-982.4v73l-72.9-36.5 72.9-36.5Z" style="fill:#03256c;fill-rule:nonzero" transform="matrix(.14024 0 0 .14024 98.868 184.973)"/><path d="m-486-909.4-72.9 36.4v-72.9l72.9 36.5Z" style="fill:#aa1f7a;fill-rule:nonzero" transform="matrix(.14024 0 0 .14024 98.868 184.973)"/><path d="m-413.1-1164.6-72.9 36.4v-72.9l72.9 36.5Z" style="fill:#892077;fill-rule:nonzero" transform="matrix(.14024 0 0 .14024 98.868 184.973)"/><path d="M-413.1-1164.6v72.9l-72.9-36.5 72.9-36.4Z" style="fill:#672274;fill-rule:nonzero" transform="matrix(.14024 0 0 .14024 98.868 184.973)"/><path d="m-413.1-1091.7-72.9 36.4v-72.9l72.9 36.5Z" style="fill:#462371;fill-rule:nonzero" transform="matrix(.14024 0 0 .14024 98.868 184.973)"/><path d="m-558.9-1091.7 72.9 36.4v-72.9l-72.9 36.5Z" style="fill:#24246f;fill-rule:nonzero" transform="matrix(.14024 0 0 .14024 98.868 184.973)"/><path d="m-413.1-1018.8-72.9 36.4v-72.9l72.9 36.5Z" style="fill:#672274;fill-rule:nonzero" transform="matrix(.14024 0 0 .14024 98.868 184.973)"/><path d="M-413.1-1018.8v72.9l-72.9-36.5 72.9-36.4Z" style="fill:#462371;fill-rule:nonzero" transform="matrix(.14024 0 0 .14024 98.868 184.973)"/><path d="m-413.1-945.9-72.9 36.5v-73l72.9 36.5Z" style="fill:#24246f;fill-rule:nonzero" transform="matrix(.14024 0 0 .14024 98.868 184.973)"/><g><path d="M172.7-386.8c-4.7 0-9.4-.1-14.1-.4-4.7-.3-8.9-.9-12.4-1.8v-85.4c1.9-.3 3.9-.7 6-1 2.1-.3 4.3-.5 6.5-.7 2.2-.2 4.4-.3 6.5-.4 2.2-.1 4.2-.1 6.2-.1 5.3 0 10.3.4 14.9 1.2 4.6.8 8.5 2.1 11.9 4 3.3 1.9 5.9 4.3 7.8 7.4 1.9 3 2.8 6.8 2.8 11.3 0 4.1-1 7.7-3 10.7-2 3-4.8 5.3-8.3 7.1 5.3 1.8 9.3 4.4 11.8 7.9s3.8 7.9 3.8 13.2c0 9.1-3.3 15.8-9.9 20.4-6.8 4.3-16.9 6.6-30.5 6.6ZM161.9-440h11.3c6.1 0 10.9-.9 14.3-2.6 3.5-1.7 5.2-4.8 5.2-9.3 0-4.2-1.8-7.2-5.4-9-3.6-1.8-8.3-2.7-14-2.7-2.5 0-4.6 0-6.5.1-1.9.1-3.5.2-4.9.4v23.1Zm0 12.6v26.8c1.8.2 3.7.3 5.7.4 2 .1 3.9.1 5.6.1 3.3 0 6.4-.2 9.2-.6 2.8-.4 5.3-1.2 7.4-2.2 2.1-1.1 3.7-2.5 5-4.3 1.2-1.8 1.8-4.1 1.8-6.9 0-5-1.8-8.5-5.5-10.4-3.6-1.9-8.7-2.9-15.1-2.9h-14.1ZM251.9-386.6c-4.6-.1-8.4-.6-11.4-1.5s-5.4-2.3-7.2-4c-1.8-1.7-3-3.9-3.7-6.5-.7-2.6-1.1-5.5-1.1-8.8v-76.4l15.4-2.5v76c0 1.9.1 3.4.4 4.7.3 1.3.8 2.3 1.6 3.2.8.9 1.8 1.6 3.1 2 1.3.5 3 .8 5 1.1l-2.1 12.7ZM321-389.9c-3 .8-6.8 1.5-11.6 2.3-4.7.8-9.9 1.2-15.6 1.2-5.3 0-9.8-.8-13.4-2.3-3.6-1.5-6.5-3.6-8.6-6.3-2.2-2.7-3.7-5.9-4.6-9.7-.9-3.8-1.4-7.9-1.4-12.4v-37.2h15.4v34.8c0 7.1 1 12.2 3.1 15.2s5.7 4.6 10.9 4.6c1.9 0 3.8-.1 5.9-.3 2.1-.2 3.6-.4 4.6-.6v-53.7H321v64.4ZM336.8-420.7c0-5.8.9-11 2.6-15.4 1.7-4.4 4-8.1 6.9-11 2.9-2.9 6.2-5.1 9.9-6.6s7.5-2.2 11.4-2.2c9.1 0 16.3 2.8 21.4 8.5 5.1 5.7 7.7 14.1 7.7 25.4 0 .8 0 1.8-.1 2.9 0 1.1-.1 2-.2 2.9h-43.8c.4 5.3 2.3 9.5 5.6 12.4 3.3 2.9 8.2 4.4 14.5 4.4 3.7 0 7.1-.3 10.2-1 3.1-.7 5.5-1.4 7.3-2.2l2 12.6c-.8.4-2 .9-3.5 1.3-1.5.5-3.2.9-5.1 1.3-1.9.4-4 .7-6.2 1-2.2.3-4.4.4-6.7.4-5.8 0-10.9-.9-15.2-2.6-4.3-1.7-7.9-4.1-10.7-7.2-2.8-3.1-4.9-6.7-6.2-10.9-1.1-4.4-1.8-9-1.8-14Zm44.6-6.9c0-2.1-.3-4.1-.9-6-.6-1.9-1.5-3.6-2.6-4.9-1.1-1.4-2.5-2.5-4.2-3.3-1.7-.8-3.6-1.2-5.9-1.2-2.4 0-4.4.4-6.2 1.3-1.8.9-3.3 2.1-4.5 3.5-1.2 1.4-2.2 3.1-2.9 5-.7 1.9-1.1 3.8-1.4 5.7h28.6v-.1ZM452.8-385.9c-6.6 0-12.5-1-17.8-3-5.2-2-9.7-5-13.3-8.9-3.6-3.9-6.4-8.7-8.4-14.4-1.9-5.7-2.9-12.2-2.9-19.5 0-7.4 1.1-13.9 3.4-19.5 2.2-5.7 5.3-10.5 9.2-14.4 3.9-3.9 8.5-6.9 13.7-8.9 5.2-2 10.9-3 16.9-3 3.6 0 6.9.3 9.9.8 3 .6 5.5 1.2 7.7 1.8 2.2.7 4 1.4 5.5 2.2 1.4.8 2.5 1.3 3 1.7l-4.7 13.1c-2-1.3-4.9-2.5-8.7-3.6-3.8-1.1-7.8-1.7-12.2-1.7-3.8 0-7.4.7-10.7 2-3.3 1.3-6.2 3.3-8.6 5.9-2.4 2.6-4.3 5.9-5.6 9.9-1.4 4-2 8.6-2 13.8 0 4.7.5 8.9 1.6 12.8 1.1 3.9 2.7 7.3 4.9 10.1s5 5 8.4 6.6c3.4 1.6 7.4 2.3 12.2 2.3 5.7 0 10.3-.6 13.8-1.7 3.6-1.1 6.3-2.2 8.3-3.2l4.3 13.1c-1 .7-2.4 1.4-4.1 2-1.7.7-3.8 1.3-6.2 2-2.4.6-5 1.1-8 1.5-3 0-6.2.2-9.6.2ZM494.7-475.8h16v88h-16zM593.1-475.8v13.8h-27v74.1H550V-462h-27v-13.8h70.1Z" style="fill:#7d7d7d;fill-rule:nonzero" transform="translate(-5.84 191.252) scale(.35778)"/></g></svg>