
<svg width="100%" height="100%" viewBox="0 0 210 70" version="1.1" xmlns="http://www.w3.org/2000/svg" xmlns:xlink="http://www.w3.org/1999/xlink" xml:space="preserve" xmlns:serif="http://www.serif.com/" style="fill-rule:evenodd;clip-rule:evenodd;stroke-linejoin:round;stroke-miterlimit:2;">
    <g transform="matrix(0.140238,0,0,0.140238,98.8679,184.973)">
        <path d="M-558.9,-1237.6L-558.9,-1164.6L-631.8,-1201.1L-558.9,-1237.6Z" style="fill:rgb(237,29,127);fill-rule:nonzero;"/>
        <path d="M-558.9,-1164.6L-558.9,-1091.7L-631.8,-1128.2L-558.9,-1164.6Z" style="fill:rgb(204,30,124);fill-rule:nonzero;"/>
        <path d="M-558.9,-1091.7L-631.8,-1055.3L-631.8,-1128.2L-558.9,-1091.7Z" style="fill:rgb(237,29,127);fill-rule:nonzero;"/>
        <path d="M-558.9,-1091.7L-558.9,-1018.8L-631.8,-1055.3L-558.9,-1091.7Z" style="fill:rgb(204,30,124);fill-rule:nonzero;"/>
        <path d="M-558.9,-1018.8L-558.9,-945.9L-631.8,-982.4L-558.9,-1018.8Z" style="fill:rgb(204,30,124);fill-rule:nonzero;"/>
        <path d="M-558.9,-945.9L-631.8,-909.4L-631.8,-982.4L-558.9,-945.9Z" style="fill:rgb(237,29,127);fill-rule:nonzero;"/>
        <path d="M-558.9,-945.9L-558.9,-873L-631.8,-909.4L-558.9,-945.9Z" style="fill:rgb(204,30,124);fill-rule:nonzero;"/>
        <path d="M-486,-1201.1L-558.9,-1164.6L-558.9,-1237.6L-486,-1201.1Z" style="fill:rgb(204,30,124);fill-rule:nonzero;"/>
        <path d="M-486,-1201.1L-486,-1128.2L-558.9,-1164.6L-486,-1201.1Z" style="fill:rgb(170,31,122);fill-rule:nonzero;"/>
        <path d="M-486,-1055.3L-558.9,-1018.8L-558.9,-1091.7L-486,-1055.3Z" style="fill:rgb(170,31,122);fill-rule:nonzero;"/>
        <path d="M-486,-1055.3L-486,-982.4L-558.9,-1018.8L-486,-1055.3Z" style="fill:rgb(137,32,119);fill-rule:nonzero;"/>
        <path d="M-486,-982.4L-486,-909.4L-558.9,-945.9L-486,-982.4Z" style="fill:rgb(3,37,108);fill-rule:nonzero;"/>
        <path d="M-486,-909.4L-558.9,-873L-558.9,-945.9L-486,-909.4Z" style="fill:rgb(170,31,122);fill-rule:nonzero;"/>
        <path d="M-413.1,-1164.6L-486,-1128.2L-486,-1201.1L-413.1,-1164.6Z" style="fill:rgb(137,32,119);fill-rule:nonzero;"/>
        <path d="M-413.1,-1164.6L-413.1,-1091.7L-486,-1128.2L-413.1,-1164.6Z" style="fill:rgb(103,34,116);fill-rule:nonzero;"/>
        <path d="M-413.1,-1091.7L-486,-1055.3L-486,-1128.2L-413.1,-1091.7Z" style="fill:rgb(70,35,113);fill-rule:nonzero;"/>
        <path d="M-558.9,-1091.7L-486,-1055.3L-486,-1128.2L-558.9,-1091.7Z" style="fill:rgb(36,36,111);fill-rule:nonzero;"/>
        <path d="M-413.1,-1018.8L-486,-982.4L-486,-1055.3L-413.1,-1018.8Z" style="fill:rgb(103,34,116);fill-rule:nonzero;"/>
        <path d="M-413.1,-1018.8L-413.1,-945.9L-486,-982.4L-413.1,-1018.8Z" style="fill:rgb(70,35,113);fill-rule:nonzero;"/>
        <path d="M-413.1,-945.9L-486,-909.4L-486,-982.4L-413.1,-945.9Z" style="fill:rgb(36,36,111);fill-rule:nonzero;"/>
    </g>
    <g transform="matrix(0.357782,0,0,0.357782,-5.83937,191.252)">
        <path d="M172.7,-386.8C168,-386.8 163.3,-386.9 158.6,-387.2C153.9,-387.5 149.7,-388.1 146.2,-389L146.2,-474.4C148.1,-474.7 150.1,-475.1 152.2,-475.4C154.3,-475.7 156.5,-475.9 158.7,-476.1C160.9,-476.3 163.1,-476.4 165.2,-476.5C167.4,-476.6 169.4,-476.6 171.4,-476.6C176.7,-476.6 181.7,-476.2 186.3,-475.4C190.9,-474.6 194.8,-473.3 198.2,-471.4C201.5,-469.5 204.1,-467.1 206,-464C207.9,-461 208.8,-457.2 208.8,-452.7C208.8,-448.6 207.8,-445 205.8,-442C203.8,-439 201,-436.7 197.5,-434.9C202.8,-433.1 206.8,-430.5 209.3,-427C211.8,-423.5 213.1,-419.1 213.1,-413.8C213.1,-404.7 209.8,-398 203.2,-393.4C196.4,-389.1 186.3,-386.8 172.7,-386.8ZM161.9,-440L173.2,-440C179.3,-440 184.1,-440.9 187.5,-442.6C191,-444.3 192.7,-447.4 192.7,-451.9C192.7,-456.1 190.9,-459.1 187.3,-460.9C183.7,-462.7 179,-463.6 173.3,-463.6C170.8,-463.6 168.7,-463.6 166.8,-463.5C164.9,-463.4 163.3,-463.3 161.9,-463.1L161.9,-440ZM161.9,-427.4L161.9,-400.6C163.7,-400.4 165.6,-400.3 167.6,-400.2C169.6,-400.1 171.5,-400.1 173.2,-400.1C176.5,-400.1 179.6,-400.3 182.4,-400.7C185.2,-401.1 187.7,-401.9 189.8,-402.9C191.9,-404 193.5,-405.4 194.8,-407.2C196,-409 196.6,-411.3 196.6,-414.1C196.6,-419.1 194.8,-422.6 191.1,-424.5C187.5,-426.4 182.4,-427.4 176,-427.4L161.9,-427.4Z" style="fill:current;fill-rule:nonzero;"/>
        <path d="M251.9,-386.6C247.3,-386.7 243.5,-387.2 240.5,-388.1C237.5,-389 235.1,-390.4 233.3,-392.1C231.5,-393.8 230.3,-396 229.6,-398.6C228.9,-401.2 228.5,-404.1 228.5,-407.4L228.5,-483.8L243.9,-486.3L243.9,-410.3C243.9,-408.4 244,-406.9 244.3,-405.6C244.6,-404.3 245.1,-403.3 245.9,-402.4C246.7,-401.5 247.7,-400.8 249,-400.4C250.3,-399.9 252,-399.6 254,-399.3L251.9,-386.6Z" style="fill:current;fill-rule:nonzero;"/>
        <path d="M321,-389.9C318,-389.1 314.2,-388.4 309.4,-387.6C304.7,-386.8 299.5,-386.4 293.8,-386.4C288.5,-386.4 284,-387.2 280.4,-388.7C276.8,-390.2 273.9,-392.3 271.8,-395C269.6,-397.7 268.1,-400.9 267.2,-404.7C266.3,-408.5 265.8,-412.6 265.8,-417.1L265.8,-454.3L281.2,-454.3L281.2,-419.5C281.2,-412.4 282.2,-407.3 284.3,-404.3C286.4,-401.3 290,-399.7 295.2,-399.7C297.1,-399.7 299,-399.8 301.1,-400C303.2,-400.2 304.7,-400.4 305.7,-400.6L305.7,-454.3L321,-454.3L321,-389.9Z" style="fill:current;fill-rule:nonzero;"/>
        <path d="M336.8,-420.7C336.8,-426.5 337.7,-431.7 339.4,-436.1C341.1,-440.5 343.4,-444.2 346.3,-447.1C349.2,-450 352.5,-452.2 356.2,-453.7C359.9,-455.2 363.7,-455.9 367.6,-455.9C376.7,-455.9 383.9,-453.1 389,-447.4C394.1,-441.7 396.7,-433.3 396.7,-422C396.7,-421.2 396.7,-420.2 396.6,-419.1C396.6,-418 396.5,-417.1 396.4,-416.2L352.6,-416.2C353,-410.9 354.9,-406.7 358.2,-403.8C361.5,-400.9 366.4,-399.4 372.7,-399.4C376.4,-399.4 379.8,-399.7 382.9,-400.4C386,-401.1 388.4,-401.8 390.2,-402.6L392.2,-390C391.4,-389.6 390.2,-389.1 388.7,-388.7C387.2,-388.2 385.5,-387.8 383.6,-387.4C381.7,-387 379.6,-386.7 377.4,-386.4C375.2,-386.1 373,-386 370.7,-386C364.9,-386 359.8,-386.9 355.5,-388.6C351.2,-390.3 347.6,-392.7 344.8,-395.8C342,-398.9 339.9,-402.5 338.6,-406.7C337.5,-411.1 336.8,-415.7 336.8,-420.7ZM381.4,-427.6C381.4,-429.7 381.1,-431.7 380.5,-433.6C379.9,-435.5 379,-437.2 377.9,-438.5C376.8,-439.9 375.4,-441 373.7,-441.8C372,-442.6 370.1,-443 367.8,-443C365.4,-443 363.4,-442.6 361.6,-441.7C359.8,-440.8 358.3,-439.6 357.1,-438.2C355.9,-436.8 354.9,-435.1 354.2,-433.2C353.5,-431.3 353.1,-429.4 352.8,-427.5L381.4,-427.5L381.4,-427.6Z" style="fill:current;fill-rule:nonzero;"/>
        <path d="M452.8,-385.9C446.2,-385.9 440.3,-386.9 435,-388.9C429.8,-390.9 425.3,-393.9 421.7,-397.8C418.1,-401.7 415.3,-406.5 413.3,-412.2C411.4,-417.9 410.4,-424.4 410.4,-431.7C410.4,-439.1 411.5,-445.6 413.8,-451.2C416,-456.9 419.1,-461.7 423,-465.6C426.9,-469.5 431.5,-472.5 436.7,-474.5C441.9,-476.5 447.6,-477.5 453.6,-477.5C457.2,-477.5 460.5,-477.2 463.5,-476.7C466.5,-476.1 469,-475.5 471.2,-474.9C473.4,-474.2 475.2,-473.5 476.7,-472.7C478.1,-471.9 479.2,-471.4 479.7,-471L475,-457.9C473,-459.2 470.1,-460.4 466.3,-461.5C462.5,-462.6 458.5,-463.2 454.1,-463.2C450.3,-463.2 446.7,-462.5 443.4,-461.2C440.1,-459.9 437.2,-457.9 434.8,-455.3C432.4,-452.7 430.5,-449.4 429.2,-445.4C427.8,-441.4 427.2,-436.8 427.2,-431.6C427.2,-426.9 427.7,-422.7 428.8,-418.8C429.9,-414.9 431.5,-411.5 433.7,-408.7C435.9,-405.9 438.7,-403.7 442.1,-402.1C445.5,-400.5 449.5,-399.8 454.3,-399.8C460,-399.8 464.6,-400.4 468.1,-401.5C471.7,-402.6 474.4,-403.7 476.4,-404.7L480.7,-391.6C479.7,-390.9 478.3,-390.2 476.6,-389.6C474.9,-388.9 472.8,-388.3 470.4,-387.6C468,-387 465.4,-386.5 462.4,-386.1C459.4,-386.1 456.2,-385.9 452.8,-385.9Z" style="fill:current;fill-rule:nonzero;"/>
        <rect x="494.7" y="-475.8" width="16" height="88" style="fill:current;fill-rule:nonzero;"/>
        <path d="M593.1,-475.8L593.1,-462L566.1,-462L566.1,-387.9L550,-387.9L550,-462L523,-462L523,-475.8L593.1,-475.8Z" style="fill:current;"/>
    </g>
</svg>
